<svg xmlns="http://www.w3.org/2000/svg" xmlns:xlink="http://www.w3.org/1999/xlink" width="1920" zoomAndPan="magnify" viewBox="0 0 1440 809.999993" height="1080" preserveAspectRatio="xMidYMid meet" version="1.0"><defs><g/></defs><g fill="#000000" fill-opacity="1"><g transform="translate(8.494639, 590.62499)"><g><path d="M 151.859375 4.921875 C 128.109375 4.921875 106.976562 1.992188 88.46875 -3.859375 C 69.957031 -9.722656 54.53125 -17.421875 42.1875 -26.953125 C 29.84375 -36.484375 20.390625 -46.953125 13.828125 -58.359375 L 51.09375 -103.8125 L 56.953125 -103.8125 C 67.265625 -88.5 80.347656 -76.3125 96.203125 -67.25 C 112.054688 -58.195312 130.609375 -53.671875 151.859375 -53.671875 C 169.984375 -53.671875 183.65625 -57.5 192.875 -65.15625 C 202.09375 -72.8125 206.703125 -83.351562 206.703125 -96.78125 C 206.703125 -104.90625 205.21875 -111.703125 202.25 -117.171875 C 199.28125 -122.640625 194.359375 -127.328125 187.484375 -131.234375 C 180.609375 -135.140625 171.3125 -138.5 159.59375 -141.3125 L 115.53125 -151.390625 C 84.757812 -158.421875 61.832031 -170.097656 46.75 -186.421875 C 31.675781 -202.753906 24.140625 -223.960938 24.140625 -250.046875 C 24.140625 -269.421875 28.984375 -286.453125 38.671875 -301.140625 C 48.359375 -315.828125 62.457031 -327.234375 80.96875 -335.359375 C 99.476562 -343.484375 121.625 -347.546875 147.40625 -347.546875 C 173.8125 -347.546875 196.425781 -344.066406 215.25 -337.109375 C 234.070312 -330.160156 249.96875 -319.5 262.9375 -305.125 L 229.4375 -259.1875 L 223.578125 -259.1875 C 213.890625 -269.34375 202.796875 -276.957031 190.296875 -282.03125 C 177.796875 -287.113281 163.5 -289.65625 147.40625 -289.65625 C 128.8125 -289.65625 114.671875 -286.375 104.984375 -279.8125 C 95.296875 -273.25 90.453125 -264.1875 90.453125 -252.625 C 90.453125 -241.851562 93.847656 -233.265625 100.640625 -226.859375 C 107.441406 -220.453125 119.203125 -215.453125 135.921875 -211.859375 L 180.921875 -202.484375 C 214.203125 -195.453125 238.335938 -183.535156 253.328125 -166.734375 C 268.328125 -149.941406 275.828125 -128.03125 275.828125 -101 C 275.828125 -79.601562 271.21875 -60.972656 262 -45.109375 C 252.78125 -29.253906 238.875 -16.953125 220.28125 -8.203125 C 201.695312 0.546875 178.890625 4.921875 151.859375 4.921875 Z M 151.859375 4.921875 "/></g></g><g transform="translate(302.842027, 590.62499)"><g><path d="M 37.265625 0 L 37.265625 -362.3125 L 102.171875 -362.3125 L 102.171875 -161.234375 L 108.5 -161.234375 L 183.265625 -258.484375 L 249.109375 -258.484375 L 249.109375 -253.09375 L 161.234375 -139.671875 L 258.953125 -5.859375 L 258.953125 0 L 190.53125 0 L 108.5 -108.96875 L 102.171875 -108.96875 L 102.171875 0 Z M 37.265625 0 "/></g></g><g transform="translate(562.270813, 590.62499)"><g><path d="M 69.609375 -289.421875 C 57.890625 -289.421875 48.359375 -292.972656 41.015625 -300.078125 C 33.671875 -307.191406 30 -316.375 30 -327.625 C 30 -338.71875 33.671875 -347.816406 41.015625 -354.921875 C 48.359375 -362.035156 57.890625 -365.59375 69.609375 -365.59375 C 77.410156 -365.59375 84.359375 -363.953125 90.453125 -360.671875 C 96.546875 -357.390625 101.269531 -352.894531 104.625 -347.1875 C 107.988281 -341.488281 109.671875 -334.96875 109.671875 -327.625 C 109.671875 -320.28125 107.988281 -313.71875 104.625 -307.9375 C 101.269531 -302.15625 96.546875 -297.625 90.453125 -294.34375 C 84.359375 -291.0625 77.410156 -289.421875 69.609375 -289.421875 Z M 37.265625 0 L 37.265625 -258.484375 L 102.171875 -258.484375 L 102.171875 0 Z M 37.265625 0 "/></g></g><g transform="translate(701.476503, 590.62499)"><g><path d="M 107.328125 4.921875 C 84.054688 4.921875 66.285156 -1.363281 54.015625 -13.9375 C 41.753906 -26.519531 35.625 -45.625 35.625 -71.25 L 35.625 -362.3125 L 100.53125 -362.3125 L 100.53125 -73.828125 C 100.53125 -58.046875 107.09375 -50.15625 120.21875 -50.15625 C 123.96875 -50.15625 127.953125 -50.78125 132.171875 -52.03125 L 135.453125 -51.09375 L 141.3125 -1.171875 C 137.71875 0.703125 132.953125 2.1875 127.015625 3.28125 C 121.078125 4.375 114.515625 4.921875 107.328125 4.921875 Z M 107.328125 4.921875 "/></g></g></g><g fill="#2ecc71" fill-opacity="1"><g transform="translate(850.064909, 590.62499)"><g><path d="M 107.328125 4.921875 C 84.054688 4.921875 66.285156 -1.363281 54.015625 -13.9375 C 41.753906 -26.519531 35.625 -45.625 35.625 -71.25 L 35.625 -362.3125 L 100.53125 -362.3125 L 100.53125 -73.828125 C 100.53125 -58.046875 107.09375 -50.15625 120.21875 -50.15625 C 123.96875 -50.15625 127.953125 -50.78125 132.171875 -52.03125 L 135.453125 -51.09375 L 141.3125 -1.171875 C 137.71875 0.703125 132.953125 2.1875 127.015625 3.28125 C 121.078125 4.375 114.515625 4.921875 107.328125 4.921875 Z M 107.328125 4.921875 "/></g></g><g transform="translate(998.64472, 590.62499)"><g><path d="M 150.21875 4.921875 C 124.90625 4.921875 102.679688 -0.269531 83.546875 -10.65625 C 64.410156 -21.050781 49.566406 -36.285156 39.015625 -56.359375 C 28.472656 -76.429688 23.203125 -100.6875 23.203125 -129.125 C 23.203125 -157.5625 28.472656 -181.859375 39.015625 -202.015625 C 49.566406 -222.171875 64.410156 -237.441406 83.546875 -247.828125 C 102.679688 -258.210938 124.90625 -263.40625 150.21875 -263.40625 C 175.53125 -263.40625 197.753906 -258.210938 216.890625 -247.828125 C 236.023438 -237.441406 250.90625 -222.171875 261.53125 -202.015625 C 272.15625 -181.859375 277.46875 -157.5625 277.46875 -129.125 C 277.46875 -100.6875 272.15625 -76.429688 261.53125 -56.359375 C 250.90625 -36.285156 236.023438 -21.050781 216.890625 -10.65625 C 197.753906 -0.269531 175.53125 4.921875 150.21875 4.921875 Z M 150.21875 -50.15625 C 190.375 -50.15625 210.453125 -76.476562 210.453125 -129.125 C 210.453125 -156.46875 205.296875 -176.503906 194.984375 -189.234375 C 184.671875 -201.972656 169.75 -208.34375 150.21875 -208.34375 C 110.0625 -208.34375 89.984375 -181.9375 89.984375 -129.125 C 89.984375 -76.476562 110.0625 -50.15625 150.21875 -50.15625 Z M 150.21875 -50.15625 "/></g></g></g><g fill="#000000" fill-opacity="1"><g transform="translate(1299.092264, 590.62499)"><g><path d="M 66.09375 2.109375 C 57.8125 2.109375 50.503906 0.429688 44.171875 -2.921875 C 37.847656 -6.285156 33.003906 -10.9375 29.640625 -16.875 C 26.285156 -22.8125 24.609375 -29.53125 24.609375 -37.03125 C 24.609375 -44.53125 26.285156 -51.25 29.640625 -57.1875 C 33.003906 -63.125 37.847656 -67.8125 44.171875 -71.25 C 50.503906 -74.6875 57.8125 -76.40625 66.09375 -76.40625 C 74.53125 -76.40625 81.910156 -74.722656 88.234375 -71.359375 C 94.554688 -68.003906 99.394531 -63.359375 102.75 -57.421875 C 106.113281 -51.484375 107.796875 -44.765625 107.796875 -37.265625 C 107.796875 -25.859375 104.003906 -16.441406 96.421875 -9.015625 C 88.847656 -1.597656 78.738281 2.109375 66.09375 2.109375 Z M 66.09375 2.109375 "/></g></g></g></svg>