<svg width="1672" height="495" viewBox="0 0 1672 495" fill="none" xmlns="http://www.w3.org/2000/svg">
<path d="M184.042 494.021C152.375 494.021 124.198 490.115 99.5208 482.313C74.8385 474.495 54.2708 464.229 37.8125 451.521C21.3542 438.813 8.75 424.854 0 409.646L49.6875 349.042H57.5C71.25 369.458 88.6927 385.708 109.833 397.792C130.969 409.865 155.708 415.896 184.042 415.896C208.208 415.896 226.438 410.792 238.729 400.583C251.021 390.375 257.167 376.323 257.167 358.417C257.167 347.583 255.188 338.521 251.229 331.229C247.271 323.938 240.708 317.688 231.542 312.479C222.375 307.271 209.979 302.792 194.354 299.042L135.604 285.604C94.5729 276.229 64.0052 260.661 43.8958 238.896C23.7969 217.12 13.75 188.844 13.75 154.063C13.75 128.229 20.2083 105.521 33.125 85.9375C46.0417 66.3542 64.8385 51.1458 89.5208 40.3125C114.198 29.4792 143.729 24.0625 178.104 24.0625C213.313 24.0625 243.464 28.7031 268.563 37.9792C293.656 47.2448 314.854 61.4583 332.146 80.625L287.479 141.875H279.667C266.75 128.333 251.958 118.182 235.292 111.417C218.625 104.641 199.563 101.25 178.104 101.25C153.313 101.25 134.458 105.625 121.542 114.375C108.625 123.125 102.167 135.208 102.167 150.625C102.167 164.99 106.693 176.438 115.75 184.979C124.818 193.521 140.5 200.188 162.792 204.979L222.792 217.479C267.167 226.854 299.344 242.745 319.333 265.146C339.333 287.536 349.333 316.75 349.333 352.792C349.333 381.323 343.188 406.161 330.896 427.313C318.604 448.453 300.063 464.854 275.271 476.521C250.49 488.188 220.083 494.021 184.042 494.021Z" fill="#494949"/>
<path d="M423.713 487.458V4.375H510.255V272.479H518.693L618.38 142.813H706.172V150L589.005 301.229L719.297 479.646V487.458H628.068L518.693 342.167H510.255V487.458H423.713Z" fill="#494949"/>
<path d="M812.743 101.563C797.118 101.563 784.41 96.8281 774.618 87.3542C764.826 77.8698 759.931 65.625 759.931 50.625C759.931 35.8333 764.826 23.7031 774.618 14.2292C784.41 4.74479 797.118 0 812.743 0C823.144 0 832.41 2.1875 840.535 6.5625C848.66 10.9375 854.957 16.9323 859.431 24.5417C863.915 32.1406 866.16 40.8333 866.16 50.625C866.16 60.4167 863.915 69.1667 859.431 76.875C854.957 84.5833 848.66 90.625 840.535 95C832.41 99.375 823.144 101.563 812.743 101.563ZM769.618 487.458V142.813H856.16V487.458H769.618Z" fill="#494949"/>
<path d="M1048.64 494.021C1017.61 494.021 993.918 485.641 977.559 468.875C961.21 452.099 953.038 426.625 953.038 392.458V4.375H1039.58V389.021C1039.58 410.063 1048.33 420.583 1065.83 420.583C1070.83 420.583 1076.14 419.75 1081.77 418.083L1086.14 419.333L1093.95 485.896C1089.16 488.396 1082.81 490.375 1074.89 491.833C1066.98 493.292 1058.23 494.021 1048.64 494.021Z" fill="#494949"/>
<path d="M1246.76 494.021C1215.73 494.021 1192.04 485.641 1175.68 468.875C1159.33 452.099 1151.16 426.625 1151.16 392.458V4.375H1237.7V389.021C1237.7 410.063 1246.45 420.583 1263.95 420.583C1268.95 420.583 1274.26 419.75 1279.89 418.083L1284.26 419.333L1292.07 485.896C1287.28 488.396 1280.93 490.375 1273.01 491.833C1265.09 493.292 1256.34 494.021 1246.76 494.021Z" fill="#494949"/>
<path d="M1502.05 494.021C1468.3 494.021 1438.67 487.099 1413.16 473.25C1387.64 459.391 1367.85 439.078 1353.78 412.313C1339.73 385.552 1332.7 353.208 1332.7 315.292C1332.7 277.375 1339.73 244.979 1353.78 218.104C1367.85 191.229 1387.64 170.87 1413.16 157.021C1438.67 143.177 1468.3 136.25 1502.05 136.25C1535.8 136.25 1565.43 143.177 1590.95 157.021C1616.46 170.87 1636.3 191.229 1650.47 218.104C1664.64 244.979 1671.72 277.375 1671.72 315.292C1671.72 353.208 1664.64 385.552 1650.47 412.313C1636.3 439.078 1616.46 459.391 1590.95 473.25C1565.43 487.099 1535.8 494.021 1502.05 494.021ZM1502.05 420.583C1555.6 420.583 1582.37 385.49 1582.37 315.292C1582.37 278.833 1575.49 252.12 1561.74 235.146C1547.99 218.161 1528.1 209.667 1502.05 209.667C1448.51 209.667 1421.74 244.875 1421.74 315.292C1421.74 385.49 1448.51 420.583 1502.05 420.583Z" fill="#494949"/>
</svg>
